<svg width="60" height="56" viewBox="0 0 60 56" fill="none" xmlns="http://www.w3.org/2000/svg">
<mask id="mask0_65_342" style="mask-type:luminance" maskUnits="userSpaceOnUse" x="0" y="0" width="60" height="56">
<path d="M59.58 0H0V55.6913H59.58V0Z" fill="white"/>
</mask>
<g mask="url(#mask0_65_342)">
<path d="M26.0663 30.5914C27.0326 30.5914 27.9282 30.1435 28.9652 29.1065L49.4692 8.81452C48.5973 7.96607 46.9711 7.56543 44.6379 7.56543H6.69333C4.7136 7.56543 3.32309 7.94252 2.54535 8.72025L23.1674 29.1065C24.1807 30.1201 25.0763 30.5914 26.0663 30.5914ZM0.589202 44.3788L17.2518 27.9046L0.542064 11.4306C0.188544 12.0905 0 13.2218 0 14.8479V40.8671C0 42.5405 0.188544 43.7187 0.589202 44.3788ZM7.40037 48.1731H45.345C47.3247 48.1731 48.6916 47.7961 49.4692 47.0419L32.4767 30.2142L30.9213 31.7933C29.2951 33.349 27.7631 34.0558 26.0663 34.0558C24.3458 34.0558 22.8139 33.349 21.2112 31.7933L19.6322 30.2142L2.68675 47.0183C3.58235 47.7961 5.13784 48.1731 7.40037 48.1731ZM51.4725 44.3551C51.8497 43.6716 52.0382 42.5169 52.0382 40.8671V14.8479C52.0382 13.2689 51.8497 12.1376 51.5198 11.5013L34.8572 27.9046L51.4725 44.3551Z" fill="white" fill-opacity="0.85"/>
<path d="M48.1968 22.7667C54.4424 22.7667 59.5802 17.6525 59.5802 11.3834C59.5802 5.13784 54.4424 0 48.1968 0C41.9513 0 36.8135 5.13784 36.8135 11.3834C36.8135 17.6525 41.9513 22.7667 48.1968 22.7667Z" fill="#3E2C78"/>
<path d="M48.1967 19.585C52.6981 19.585 56.3983 15.8613 56.3983 11.3833C56.3983 6.9054 52.6981 3.18164 48.1967 3.18164C43.6953 3.18164 40.0186 6.88182 40.0186 11.3833C40.0186 15.8848 43.6953 19.585 48.1967 19.585ZM48.1967 15.8613C45.7457 15.8613 43.7424 13.8344 43.7424 11.3833C43.7424 8.93224 45.7457 6.90539 48.1967 6.90539C50.6477 6.90539 52.6747 8.95582 52.6747 11.3833C52.6747 13.8108 50.6477 15.8613 48.1967 15.8613Z" fill="white" fill-opacity="0.85"/>
</g>
</svg>
